<svg width="22" height="38" viewBox="0 0 22 38" fill="none" xmlns="http://www.w3.org/2000/svg">
<path d="M6.91107 31.7819L4.6106 31.3023C5.05823 29.9305 4.90391 28.4753 3.49103 27.7712C2.4309 27.2427 1.48099 27.5602 0.489868 28.0408C0.625021 25.2416 0.327876 22.0003 1.78868 19.5091C3.21785 18.1891 5.41385 18.2821 7.22739 18.4673C8.6326 19.769 9.59113 21.7835 11.604 22.241C11.9932 22.3293 12.7361 22.3111 12.9853 22.3936C13.1454 22.4473 13.1962 22.7495 13.2278 22.901C12.4859 23.3624 11.0912 23.514 10.2966 23.1667C9.68794 22.901 7.35104 20.6707 7.15071 20.6717C7.07498 20.6717 6.73758 21.1024 6.62639 21.182C7.74596 22.0319 9.37546 23.961 10.795 24.1068C11.9079 24.221 14.401 24.0752 13.9132 22.4243C13.57 21.2635 12.7725 21.7115 11.7967 21.4727C10.7308 21.2127 9.97263 20.3772 9.25852 19.6002C8.66327 18.9517 8.08336 17.7498 7.19959 17.6797L7.96738 17.1541C9.02943 16.2466 9.72149 15.0043 9.60551 13.5654C10.7404 13.3621 11.8676 13.0522 13.0121 12.8978C15.7698 12.5275 18.7547 12.4786 20.7168 14.752C24.3727 18.9872 19.3912 25.0047 16.0631 27.7501C14.5669 28.9847 11.6529 31.0423 9.94866 31.8941C9.4646 32.1359 9.26715 32.0486 8.75433 31.9047C7.60409 31.5814 6.94846 30.8744 7.10182 29.6207C7.26477 28.2844 9.65535 27.8499 10.7155 27.3856C12.9009 26.4273 16.8261 23.9898 17.0715 21.3729C17.1108 20.9556 17.0696 20.1402 16.8319 19.7911C16.713 19.6174 16.159 19.9973 16.1312 20.1383C16.1063 20.2688 16.2807 20.5211 16.298 20.7091C16.5577 23.5389 11.9999 26.0071 9.78667 26.9357C9.39751 27.0988 8.94891 27.1563 8.54345 27.3223C6.42318 28.1885 5.5768 29.7003 6.91203 31.78L6.91107 31.7819Z" fill="url(#paint0_linear_2169_3321)"/>
<path d="M12.2558 0.0550591C16.782 -0.512827 20.3152 3.3981 18.9617 7.82128C17.569 12.373 11.511 13.3754 8.54342 9.66883C5.78764 6.22794 7.88012 0.604719 12.2558 0.0550591Z" fill="url(#paint1_linear_2169_3321)"/>
<path d="M4.68342 10.2242C9.66778 9.54025 10.3004 16.8719 5.60552 17.2854C1.03237 17.6883 0.349892 10.8189 4.68342 10.2242Z" fill="url(#paint2_linear_2169_3321)"/>
<path d="M13.0456 37.1548H3.46033V32.7422C3.46033 32.7259 3.63861 32.7153 3.7498 32.604C3.86099 32.4928 4.23099 32.0093 4.27029 32.0026C4.40352 31.9805 6.48258 32.5427 6.89379 32.6156C7.79768 32.7758 8.70829 32.9033 9.62848 32.9484L13.0466 37.1538L13.0456 37.1548Z" fill="url(#paint3_linear_2169_3321)"/>
<path d="M19.3719 37.1547H14.4834L15.603 35.5729L12.667 31.0231L17.1663 27.8499C16.6286 31.1708 16.9238 34.652 19.3719 37.1547Z" fill="url(#paint4_linear_2169_3321)"/>
<path d="M1.8059 28.3524C3.12196 28.127 4.15718 28.8042 4.03449 30.199C3.97601 30.8638 3.4747 32.4005 2.59477 32.1242C2.33117 32.0417 0.0939602 30.1971 0.0297385 29.9889C-0.218521 29.1735 1.15026 28.4646 1.8059 28.3524Z" fill="url(#paint5_linear_2169_3321)"/>
<path d="M10.3618 32.552L11.9923 31.5391L14.6599 35.5891C14.6742 35.6812 13.9908 36.5896 13.9103 36.6337C13.7224 36.7383 13.4157 36.3373 13.2834 36.1963C12.2568 35.1018 11.3337 33.7099 10.3608 32.552H10.3618Z" fill="url(#paint6_linear_2169_3321)"/>
<defs>
<linearGradient id="paint0_linear_2169_3321" x1="20.7994" y1="14.4139" x2="2.4095" y2="33.7165" gradientUnits="userSpaceOnUse">
<stop stop-color="#C59D5F"/>
<stop offset="0.5" stop-color="#7A684D"/>
<stop offset="1" stop-color="#2F333B"/>
</linearGradient>
<linearGradient id="paint1_linear_2169_3321" x1="18.587" y1="1.05427" x2="7.24461" y2="11.7755" gradientUnits="userSpaceOnUse">
<stop stop-color="#C59D5F"/>
<stop offset="0.5" stop-color="#7A684D"/>
<stop offset="1" stop-color="#2F333B"/>
</linearGradient>
<linearGradient id="paint2_linear_2169_3321" x1="8.40569" y1="10.8085" x2="1.6423" y2="17.099" gradientUnits="userSpaceOnUse">
<stop stop-color="#C59D5F"/>
<stop offset="0.5" stop-color="#7A684D"/>
<stop offset="1" stop-color="#2F333B"/>
</linearGradient>
<linearGradient id="paint3_linear_2169_3321" x1="12.5115" y1="32.4572" x2="8.2923" y2="39.8649" gradientUnits="userSpaceOnUse">
<stop stop-color="#C59D5F"/>
<stop offset="0.5" stop-color="#7A684D"/>
<stop offset="1" stop-color="#2F333B"/>
</linearGradient>
<linearGradient id="paint4_linear_2169_3321" x1="18.9977" y1="28.6719" x2="10.7597" y2="34.2741" gradientUnits="userSpaceOnUse">
<stop stop-color="#C59D5F"/>
<stop offset="0.5" stop-color="#7A684D"/>
<stop offset="1" stop-color="#2F333B"/>
</linearGradient>
<linearGradient id="paint5_linear_2169_3321" x1="3.81862" y1="28.6497" x2="0.15617" y2="32.2831" gradientUnits="userSpaceOnUse">
<stop stop-color="#C59D5F"/>
<stop offset="0.5" stop-color="#7A684D"/>
<stop offset="1" stop-color="#2F333B"/>
</linearGradient>
<linearGradient id="paint6_linear_2169_3321" x1="14.4201" y1="31.9907" x2="9.68075" y2="35.7524" gradientUnits="userSpaceOnUse">
<stop stop-color="#C59D5F"/>
<stop offset="0.5" stop-color="#7A684D"/>
<stop offset="1" stop-color="#2F333B"/>
</linearGradient>
</defs>
</svg>
