<svg width="45" height="33" viewBox="0 0 45 33" fill="none" xmlns="http://www.w3.org/2000/svg">
<path d="M40.6444 0.75982V25.903C34.0517 24.3004 27.0041 26.7705 22.6605 31.8474V7.46734C26.5202 1.57838 33.7428 -1.53921 40.6444 0.75982Z" fill="url(#paint0_linear_2169_3331)"/>
<path d="M22.3379 31.8472C21.1169 30.4952 19.7645 29.2614 18.2185 28.2789C14.154 25.6988 9.07497 24.7613 4.354 25.9028V0.759648C11.2629 -1.54179 18.4661 1.58383 22.3379 7.46717V31.8472Z" fill="url(#paint1_linear_2169_3331)"/>
<path d="M44.9991 2.52688V29.9996C37.6677 29.0212 30.1201 29.7859 23.1451 32.1685C22.929 31.9283 23.8257 31.268 23.9935 31.1266C28.9153 26.9816 35.9322 25.5903 42.0967 27.5102V2.28589L44.9999 2.52688H44.9991Z" fill="url(#paint2_linear_2169_3331)"/>
<path d="M2.90242 2.36631V27.5095C3.77177 27.2179 4.70726 27.0106 5.61774 26.8805C11.0984 26.0965 16.7726 27.5448 21.0056 31.1267C21.175 31.2705 22.0605 31.9396 21.854 32.1686C20.0815 31.5982 18.2911 31.0616 16.4669 30.6672C11.0774 29.5032 5.47177 29.2807 0 29.9997V2.52697C0.958065 2.36711 1.93306 2.35185 2.90323 2.36631H2.90242Z" fill="url(#paint3_linear_2169_3331)"/>
<defs>
<linearGradient id="paint0_linear_2169_3331" x1="39.6406" y1="2.81403" x2="14.4739" y2="16.226" gradientUnits="userSpaceOnUse">
<stop stop-color="#C59D5F"/>
<stop offset="0.5" stop-color="#7A684D"/>
<stop offset="1" stop-color="#2F333B"/>
</linearGradient>
<linearGradient id="paint1_linear_2169_3331" x1="21.334" y1="2.81357" x2="-3.83269" y2="16.2255" gradientUnits="userSpaceOnUse">
<stop stop-color="#C59D5F"/>
<stop offset="0.5" stop-color="#7A684D"/>
<stop offset="1" stop-color="#2F333B"/>
</linearGradient>
<linearGradient id="paint2_linear_2169_3331" x1="43.7782" y1="4.92589" x2="17.1653" y2="23.3225" gradientUnits="userSpaceOnUse">
<stop stop-color="#C59D5F"/>
<stop offset="0.5" stop-color="#7A684D"/>
<stop offset="1" stop-color="#2F333B"/>
</linearGradient>
<linearGradient id="paint3_linear_2169_3331" x1="20.6635" y1="4.99534" x2="-5.90417" y2="23.4048" gradientUnits="userSpaceOnUse">
<stop stop-color="#C59D5F"/>
<stop offset="0.5" stop-color="#7A684D"/>
<stop offset="1" stop-color="#2F333B"/>
</linearGradient>
</defs>
</svg>
