<svg width="52" height="52" viewBox="0 0 52 52" fill="none" xmlns="http://www.w3.org/2000/svg">
<mask id="mask0_0_14" style="mask-type:luminance" maskUnits="userSpaceOnUse" x="0" y="0" width="52" height="52">
<path d="M52 0H0V52H52V0Z" fill="white"/>
</mask>
<g mask="url(#mask0_0_14)">
<path d="M37.4141 5.37839C36.4946 4.7875 35.5203 4.28709 34.5137 3.87298C33.5071 3.45721 32.4647 3.13356 31.4025 2.907C30.3411 2.68045 29.2598 2.55597 28.1776 2.53273C27.9071 2.53273 27.6365 2.52775 27.366 2.53273L26.556 2.57671C26.0141 2.61074 25.4756 2.67132 24.9411 2.75182C23.8722 2.91447 22.8191 3.17174 21.805 3.53522C20.79 3.89539 19.8141 4.36093 18.9071 4.93358C17.9992 5.50536 17.1668 6.19167 16.4249 6.96179C15.688 7.73772 15.0349 8.59746 14.4639 9.50867C13.8938 10.4199 13.4008 11.3817 13.005 12.3776C12.8075 12.8755 12.6332 13.3825 12.4954 13.8971C12.3593 14.4108 12.249 14.9319 12.2017 15.4514C12.1759 15.7112 12.1668 15.9701 12.1801 16.224C12.1834 16.3518 12.1992 16.4763 12.2158 16.6L12.2481 16.7825L12.2921 16.9825C12.4116 17.5394 12.4681 18.1261 12.4058 18.7103C12.3751 19.0024 12.3179 19.2937 12.2307 19.5776C12.1809 19.717 12.1361 19.8597 12.0706 19.9933C12.039 20.0614 12.0124 20.1286 11.9751 20.1975C11.9394 20.2663 11.9004 20.3327 11.8598 20.3975C11.6946 20.6564 11.517 20.8688 11.3469 21.083C11.1735 21.2979 10.9958 21.5136 10.8133 21.722C10.0838 22.561 9.30459 23.3236 8.60667 24.141C8.43238 24.3452 8.26143 24.5527 8.09546 24.7635C7.93114 24.9742 7.75937 25.19 7.63487 25.3925C7.57178 25.4937 7.52615 25.5917 7.50128 25.6788C7.47887 25.7643 7.47718 25.8407 7.49712 25.9153C7.51371 25.9867 7.55934 26.0606 7.62742 26.1419C7.69545 26.2224 7.78589 26.3054 7.88382 26.3859C8.07969 26.5477 8.30043 26.7062 8.52035 26.8655C8.73944 27.0249 8.95437 27.1709 9.18257 27.3145L9.35937 27.4265C9.42077 27.4672 9.48551 27.5079 9.56351 27.5767C9.60169 27.6108 9.64316 27.6548 9.68133 27.7062C9.71869 27.7593 9.74854 27.8182 9.76765 27.873C9.78759 27.9261 9.79751 27.9792 9.80665 28.0323C9.81827 28.0846 9.81744 28.141 9.81662 28.1966C9.81827 28.2531 9.80418 28.3045 9.79504 28.3576C9.78343 28.4091 9.76601 28.4539 9.75023 28.5021C9.73195 28.5435 9.71288 28.585 9.69295 28.6249L9.63237 28.7311C9.55107 28.8639 9.47472 28.9701 9.41163 29.0755C9.3494 29.1801 9.2971 29.2821 9.25979 29.3859C9.22573 29.4913 9.19587 29.5967 9.18842 29.7087C9.16268 29.9344 9.19006 30.1676 9.26642 30.3734C9.3419 30.5792 9.46891 30.7618 9.63653 30.9029C9.80332 31.0448 10.015 31.1452 10.2349 31.1975L11.1569 31.4174L10.2913 31.785C10.0374 31.8929 9.82659 32.0506 9.7527 32.2274C9.71622 32.3203 9.70625 32.39 9.73112 32.5079C9.75353 32.6215 9.80999 32.7635 9.86476 32.9078C9.98094 33.1983 10.0955 33.5211 10.1785 33.8298C10.2647 34.1419 10.3411 34.4564 10.3959 34.7817C10.449 35.1062 10.483 35.4481 10.4531 35.795C10.4415 35.9676 10.4092 36.1411 10.3702 36.3054C10.3303 36.4705 10.2805 36.6257 10.2457 36.7635C10.21 36.9029 10.1925 37.024 10.2 37.146C10.2067 37.268 10.2357 37.3958 10.2838 37.5162C10.3793 37.7585 10.551 37.9809 10.761 38.1743C10.9718 38.3676 11.2183 38.5328 11.4797 38.6763C11.7419 38.8191 12.0199 38.9402 12.3029 39.0382C12.5859 39.1311 12.8705 39.1992 13.1602 39.2191C13.4498 39.2407 13.7436 39.2157 14.0465 39.1684C14.3485 39.122 14.6598 39.0589 14.9768 39.0091C15.2938 38.9577 15.6166 38.9245 15.9394 38.9054C16.1013 38.8987 16.2631 38.8904 16.4241 38.8929C16.5868 38.8921 16.7444 38.8954 16.9029 38.9004C17.2208 38.9103 17.5419 38.927 17.8623 38.961C18.5021 39.0299 19.1452 39.1585 19.751 39.4066C20.0531 39.5303 20.3469 39.678 20.6216 39.8573C20.8963 40.0365 21.1519 40.2448 21.3826 40.4763C21.8465 40.9386 22.2042 41.4929 22.4739 42.0763C22.7452 42.6606 22.9344 43.2755 23.0747 43.8962C23.2158 44.518 23.3054 45.1459 23.3784 45.7734C23.4581 46.4 23.5004 47.0365 23.4938 47.6696C23.4905 47.9868 23.4739 48.3027 23.4498 48.6182C23.4216 48.9337 23.3868 49.2483 23.3353 49.5594C23.2382 50.1834 23.0988 50.8009 22.9195 51.405C23.2299 50.1834 23.3801 48.9237 23.3544 47.6705C23.3411 47.043 23.2797 46.4216 23.1801 45.7998C23.0871 45.1784 22.9842 44.5592 22.8291 43.9551C22.6755 43.351 22.4755 42.7602 22.2009 42.2074C21.927 41.6564 21.5759 41.1452 21.1378 40.7245C20.9195 40.5145 20.6797 40.3269 20.4233 40.1676C20.166 40.0083 19.8921 39.8771 19.6091 39.7676C19.0423 39.5485 18.4341 39.439 17.8216 39.3859C17.5145 39.3601 17.2058 39.3502 16.8938 39.3469C16.737 39.3444 16.5801 39.3452 16.4274 39.3485C16.2739 39.3485 16.1204 39.3585 15.9677 39.3668C15.6622 39.39 15.3577 39.4249 15.054 39.4796C14.7494 39.532 14.4432 39.5983 14.1236 39.6531C13.805 39.7079 13.4672 39.7435 13.1278 39.7236C12.7884 39.7054 12.454 39.6307 12.1378 39.5311C11.8233 39.4282 11.5204 39.3012 11.2266 39.1469C10.9336 38.9925 10.649 38.8099 10.3917 38.5809C10.1361 38.3527 9.90207 38.0714 9.76185 37.7269C9.69212 37.556 9.64649 37.3734 9.63406 37.1809C9.61993 36.9884 9.64979 36.7942 9.6913 36.6282C9.73281 36.4606 9.77844 36.3153 9.81081 36.1734C9.84318 36.0315 9.86806 35.8938 9.87555 35.7519C9.89796 35.4688 9.86806 35.1784 9.81662 34.883C9.76432 34.5875 9.68965 34.2888 9.60498 33.9942C9.52117 33.6954 9.42242 33.424 9.30208 33.1303C9.24484 32.9809 9.17845 32.8307 9.13529 32.6357C9.11371 32.5394 9.10045 32.4298 9.10955 32.3153C9.11787 32.2016 9.14608 32.0888 9.18755 31.9892C9.27305 31.7867 9.41496 31.6232 9.56516 31.5012C9.71622 31.3784 9.87802 31.2896 10.0398 31.2174L10.0963 31.805C9.78425 31.7336 9.48716 31.5975 9.23405 31.3884C8.98094 31.1809 8.7826 30.902 8.66889 30.5958C8.55519 30.2896 8.5187 29.9643 8.55189 29.6481C8.56351 29.4871 8.60498 29.327 8.65646 29.1726C8.71123 29.0191 8.78425 28.8772 8.86142 28.7477C8.9386 28.6182 9.02076 28.5021 9.08134 28.4016L9.12199 28.3294L9.15106 28.2664C9.15522 28.2489 9.16432 28.2298 9.16684 28.2149C9.16684 28.2008 9.17594 28.1859 9.17182 28.1734C9.17013 28.161 9.17429 28.1485 9.16848 28.1344C9.16597 28.1203 9.16515 28.1062 9.16016 28.0954C9.15189 28.0771 9.15852 28.0855 9.13278 28.0597C9.10873 28.0373 9.05894 28.0033 9.00581 27.9693L8.83655 27.8622C8.60168 27.7153 8.36517 27.5551 8.14109 27.3933C7.91871 27.2332 7.69381 27.0738 7.46722 26.8888C7.35438 26.795 7.24067 26.6954 7.13112 26.5676C7.02409 26.4415 6.91537 26.2796 6.86558 26.0846C6.81327 25.8954 6.82077 25.6896 6.86891 25.5112C6.91784 25.3344 6.99419 25.185 7.07388 25.0539C7.23651 24.7909 7.4075 24.58 7.57759 24.3593C7.74858 24.1402 7.92451 23.9253 8.10456 23.7137C8.82242 22.8647 9.61165 22.1004 10.3179 21.2913C10.4954 21.0888 10.6664 20.8838 10.8365 20.6738C11.0066 20.4614 11.1793 20.2531 11.3079 20.0506C11.3735 19.9494 11.4249 19.8456 11.4755 19.7294C11.5303 19.6182 11.5676 19.4987 11.6108 19.3817C11.6847 19.1435 11.7345 18.8962 11.7619 18.6456C11.8166 18.1419 11.771 17.6265 11.6631 17.1161L11.6199 16.9162L11.5818 16.6954C11.5627 16.5485 11.5452 16.4008 11.5411 16.2556C11.527 15.9634 11.5378 15.6755 11.5676 15.3916C11.6208 14.8232 11.7411 14.2713 11.8905 13.7311C12.0398 13.1908 12.2266 12.6647 12.4365 12.1493C12.8573 11.1186 13.3743 10.1328 13.9718 9.19662C14.571 8.26301 15.249 7.37506 16.0307 6.5792C16.8158 5.7875 17.693 5.08711 18.6432 4.50783C19.5934 3.92858 20.6083 3.46219 21.6581 3.10866C22.7087 2.75597 23.7942 2.51613 24.888 2.37173C25.4357 2.3012 25.9851 2.25057 26.5344 2.22817L27.3619 2.19995C27.6374 2.20161 27.9137 2.21406 28.1892 2.2207C29.2905 2.27298 30.3851 2.42817 31.4539 2.68709C32.5229 2.94435 33.5635 3.3095 34.5635 3.75929C35.5643 4.20742 36.5187 4.75266 37.4158 5.37753L37.4141 5.37839Z" fill="#9F8B61"/>
<path d="M26.1427 49.5235C32.0182 49.1136 37.7975 46.6821 41.907 42.4249C49.7285 34.3726 51.1021 22.9029 45.3163 13.2689C44.1029 11.2415 42.6655 9.32863 40.9751 7.67139C41.8755 8.44731 42.6995 9.31121 43.469 10.2208C49.9443 17.8116 51.5047 28.2332 46.6366 37.0855C45.4831 39.195 44.0197 41.1328 42.3203 42.8324C41.4713 43.6822 40.5626 44.4795 39.5717 45.1603C35.6946 47.9501 30.9054 49.4698 26.1427 49.5235Z" fill="#9F8B61"/>
<path d="M43.2357 11.9502C42.8929 11.385 42.5087 10.8464 42.0929 10.3352C41.673 9.82816 41.2191 9.34851 40.7269 8.91366L40.5427 8.75016L40.3544 8.59165C40.2299 8.48461 40.0996 8.38499 39.9701 8.28376C39.7103 8.0846 39.4415 7.89454 39.1685 7.71033C38.6249 7.341 38.0614 7.00491 37.4739 6.71778C36.8863 6.43066 36.2763 6.19332 35.6514 6.00907C35.0241 5.83231 34.3809 5.71943 33.7336 5.66881L33.2473 5.64312C33.0846 5.64312 32.9228 5.64892 32.7602 5.65057C32.6788 5.65391 32.5975 5.65057 32.517 5.65885L32.2747 5.68212C32.1128 5.69954 31.9527 5.7095 31.7892 5.73191C31.1427 5.81987 30.5054 5.96179 29.8904 6.17092C29.2747 6.37671 28.6805 6.64641 28.1328 6.99C27.5842 7.33273 27.0855 7.75098 26.6556 8.23233C26.2274 8.71532 25.8772 9.26552 25.6108 9.8539C25.4821 10.1502 25.3668 10.4531 25.2822 10.7659C25.1942 11.0771 25.1236 11.395 25.0788 11.717C24.9834 12.3601 24.9718 13.0174 24.9959 13.673C25.0166 14.3261 25.1071 14.9776 25.2631 15.6141C25.4166 16.2514 25.6332 16.8746 25.9095 17.4722C26.1884 18.068 26.5179 18.6423 26.9004 19.1817C26.0772 18.146 25.4681 16.9369 25.1054 15.6547C24.9278 15.0124 24.8182 14.3502 24.7784 13.6829C24.7361 13.0199 24.7378 12.3485 24.8224 11.6813C24.9054 11.0149 25.0763 10.356 25.3452 9.73604C25.6166 9.11698 25.9768 8.53687 26.4199 8.02402C26.8656 7.51364 27.39 7.07546 27.9602 6.71449C28.5311 6.35348 29.1477 6.07047 29.7851 5.85554C30.4224 5.64143 31.0822 5.49786 31.7461 5.4099C31.9104 5.38832 32.0805 5.3767 32.2473 5.36011L32.4988 5.33688C32.5826 5.32856 32.6672 5.33272 32.751 5.32943C32.9195 5.32774 33.0871 5.32275 33.2556 5.32358L33.7593 5.35512C34.429 5.41488 35.0913 5.53938 35.7344 5.72939C36.3759 5.92361 36.9975 6.18002 37.5909 6.48543C38.1851 6.7908 38.7552 7.14102 39.2938 7.53106C39.834 7.9153 40.3585 8.33273 40.8382 8.7925C41.7958 9.71528 42.6133 10.7808 43.2365 11.9477L43.2357 11.9502Z" fill="#9F8B61"/>
<path d="M19.6838 6.99241C21.7004 5.32937 24.2573 4.33517 26.8581 4.11607C27.727 4.04387 28.6017 4.05549 29.4623 4.16586C26.0025 4.09532 22.5685 5.0779 19.6838 6.99241Z" fill="#9F8B61"/>
<path d="M18.5586 7.67139C17.9893 8.22077 17.5063 8.86058 17.1768 9.57593C17.0109 9.93196 16.8814 10.3046 16.7959 10.6871L16.7395 10.9751L16.7046 11.2664L16.6872 11.4124C16.6814 11.4614 16.683 11.5104 16.6806 11.5593L16.6714 11.8523C16.6714 11.9502 16.6806 12.0473 16.6839 12.1452C16.688 12.2431 16.6922 12.3402 16.708 12.4374L16.7453 12.7278C16.761 12.8241 16.7834 12.9195 16.8026 13.0149L16.8316 13.1585C16.8424 13.2058 16.8573 13.2531 16.8706 13.2996L16.9503 13.5817L17.049 13.8581L17.0988 13.9958L17.1577 14.1303C17.3054 14.493 17.5013 14.834 17.7104 15.1635C17.9229 15.4921 18.1702 15.7975 18.4324 16.0863C18.698 16.3726 18.9909 16.634 19.3038 16.8664C19.6175 17.0971 19.9627 17.2789 20.3304 17.4067C20.6971 17.537 21.0855 17.6182 21.4681 17.7228C21.8524 17.8233 22.2333 17.9444 22.6042 18.088C23.3453 18.3801 24.0557 18.7402 24.7353 19.1502C25.4117 19.566 26.059 20.0265 26.6606 20.5411C26.0349 20.0556 25.3801 19.61 24.6938 19.2199C24.0092 18.8266 23.2971 18.4813 22.5594 18.2075C22.1893 18.0747 21.8125 17.961 21.4316 17.8623C21.0507 17.761 20.6615 17.6822 20.2806 17.5502C19.8996 17.4207 19.5362 17.2315 19.2109 16.9959C18.8864 16.7585 18.5851 16.493 18.3113 16.2C18.0432 15.9021 17.7934 15.5884 17.5777 15.2506C17.366 14.912 17.1677 14.5618 17.0191 14.1901L16.9602 14.0523L16.9096 13.9112L16.81 13.6282L16.7304 13.3386C16.7179 13.2905 16.7022 13.2423 16.6922 13.1934L16.6631 13.0456C16.5719 12.6548 16.5494 12.2523 16.5453 11.8523L16.5602 11.5527C16.5635 11.5029 16.5635 11.4523 16.5702 11.4033L16.5909 11.2548L16.6324 10.9577L16.6955 10.6647C16.7909 10.2764 16.9287 9.89959 17.1055 9.54191C17.283 9.18506 17.5005 8.84897 17.7445 8.5361C17.9876 8.22241 18.2623 7.9336 18.5602 7.67303L18.5586 7.67139Z" fill="#9F8B61"/>
<path d="M26.4415 20.795C25.6058 20.5394 24.7577 20.3302 23.9012 20.1734C23.0448 20.0174 22.1793 19.9153 21.3104 19.8696C20.8764 19.8439 20.4415 19.8365 20.0067 19.8414C19.5718 19.8439 19.137 19.8647 18.7029 19.8954C17.8349 19.9601 16.9693 20.0763 16.1112 20.2414C16.9552 20.0141 17.8191 19.853 18.6921 19.7668C19.5643 19.6788 20.444 19.658 21.3203 19.7045C22.1967 19.7535 23.0697 19.8638 23.927 20.0473C24.7851 20.2265 25.6274 20.4788 26.4415 20.7958V20.795Z" fill="#9F8B61"/>
<path d="M17.5087 24.9377C17.9883 24.463 18.663 23.8556 19.5385 23.2415C20.4465 22.6033 20.9435 22.2539 21.6763 21.9792C23.551 21.2763 26.4016 21.2738 26.7079 21.2738C26.8365 21.2738 27.1801 21.2772 27.5112 21.0689C27.8639 20.8473 28.0365 20.4888 28.1253 20.2348C28.2572 19.0074 28.3883 17.7792 28.5203 16.5518C28.5336 15.8597 28.6539 14.4796 29.473 13.0091C29.7352 12.5377 30.5128 11.1801 32.107 10.2572C34.5775 8.82819 37.1751 9.50453 37.8589 9.68298C41.5668 10.6489 43.2365 13.8265 43.4789 14.307C43.8238 14.9908 45.2174 17.7535 44.0548 20.9427C43.063 23.6605 40.8547 24.9319 40.2547 25.2523C40.6738 24.9552 41.2456 24.5021 41.8357 23.8622C42.3535 23.3004 43.2157 22.3452 43.7385 20.834C43.8373 20.5485 44.2082 19.4224 44.1536 17.9053C44.1311 17.2905 44.0132 15.8722 43.2373 14.3593C41.5211 11.0116 38.0605 10.0755 37.7585 9.99914C37.0365 9.81658 34.6099 9.20163 32.2456 10.5178C30.7842 11.3311 30.0232 12.5054 29.7867 12.8996C29.112 14.0257 28.98 15.0315 28.8074 16.3568C28.6879 17.268 28.6 18.6066 28.8074 20.2365C28.8091 20.2539 28.8124 20.2954 28.8215 20.3477C28.9178 20.8797 29.4232 21.3776 29.9452 21.4448C29.985 21.4498 30.0174 21.4514 30.029 21.4523C31.4713 21.4489 33.0431 21.512 34.7236 21.6763C37.1145 21.9103 39.2663 22.307 41.1444 22.7585C39.2406 22.3651 37.0755 22.0348 34.6863 21.8622C32.99 21.7402 31.4008 21.7137 29.9402 21.7494C29.8249 21.7568 29.6207 21.7867 29.4282 21.9261C29.3742 21.9726 29.2962 22.0439 29.2166 22.1427C28.9626 22.4556 28.8954 22.7751 28.8224 23.1245C28.79 23.2805 28.7219 23.6564 28.7601 24.1344C28.7659 24.2091 28.7734 24.2714 28.7792 24.3162C29.0157 26.4639 29.0838 28.2896 29.0929 29.6888C29.0996 30.7568 29.0713 31.6531 29.0431 32.2863C28.9585 34.1867 28.7817 35.7958 28.6124 37.0215C28.7518 35.7693 28.8863 34.1543 28.9269 32.2639C28.9402 31.6506 28.9485 30.7676 28.9211 29.7103C28.8838 28.2871 28.7792 26.4614 28.5104 24.3311C28.507 24.2896 28.502 24.229 28.4938 24.1577C28.4323 23.6249 28.2937 23.2357 28.2639 23.1527C28.1585 22.8639 28.034 22.522 27.7817 22.2514C27.4166 21.8597 26.912 21.7543 26.4423 21.6971C23.7344 21.3651 21.6033 22.2614 21.6033 22.2614C20.8041 22.5975 20.2274 22.9709 19.5402 23.4157C18.6746 23.9759 17.9941 24.5195 17.5103 24.9369L17.5087 24.9377Z" fill="#9F8B61"/>
<path d="M17.4946 24.9495C17.5129 24.9246 17.5311 24.8914 17.5577 24.8624C17.5859 24.8317 17.6066 24.8134 17.6299 24.7902L17.7676 24.659C17.8597 24.5719 17.9527 24.4864 18.0473 24.4018C18.2357 24.2325 18.4282 24.0682 18.624 23.908C19.0157 23.5868 19.4274 23.2906 19.8431 23.0026C20.2581 22.7146 20.6755 22.4233 21.1303 22.196C21.3576 22.0831 21.5917 21.9827 21.8332 21.9047L22.0133 21.8433C22.0739 21.8242 22.1353 21.8076 22.1958 21.7901C22.3178 21.7553 22.439 21.7196 22.5635 21.6922C23.5494 21.4541 24.5602 21.3437 25.5701 21.2873C25.8232 21.2731 26.0755 21.264 26.3286 21.2582C26.4548 21.2557 26.5817 21.2541 26.7087 21.2541C26.8348 21.2557 26.9593 21.2458 27.0813 21.2201C27.3261 21.1702 27.5544 21.0474 27.7286 20.8682C27.9029 20.6889 28.0249 20.464 28.1079 20.2275V20.2317L28.5021 16.5487V16.5503C28.527 15.1412 28.9568 13.7445 29.7178 12.5603C30.0946 11.9661 30.556 11.4242 31.0888 10.9628C31.3535 10.7304 31.6406 10.5246 31.9403 10.3395C32.0879 10.2432 32.2464 10.1652 32.4016 10.0831C32.5552 9.99594 32.7195 9.93207 32.8813 9.86235C33.5328 9.59515 34.2257 9.42914 34.9278 9.37688C35.1037 9.36527 35.2788 9.35114 35.4548 9.35279C35.6307 9.34698 35.8066 9.3553 35.9826 9.36193C36.3336 9.38269 36.6838 9.42087 37.0307 9.48145C37.3776 9.54285 37.7203 9.62336 38.0581 9.72212C38.3967 9.81836 38.7295 9.93536 39.0514 10.0773C39.6979 10.3553 40.3071 10.7188 40.8639 11.1495C41.4215 11.5794 41.9269 12.0748 42.3751 12.6167C42.8224 13.1594 43.2182 13.747 43.5309 14.3769C43.6887 14.6914 43.8317 15.0134 43.9543 15.3428C44.0189 15.5063 44.0704 15.6748 44.1268 15.8416C44.1528 15.9254 44.1757 16.0109 44.2009 16.0947C44.2247 16.1793 44.2507 16.2632 44.2689 16.3495C44.4383 17.0325 44.5276 17.7354 44.5194 18.4391C44.5046 19.8458 44.0921 21.2483 43.3311 22.4333C42.5726 23.62 41.4987 24.5968 40.2606 25.2648L40.2456 25.2408C40.6639 24.9445 41.0597 24.6159 41.4282 24.259C41.6124 24.0806 41.7892 23.8947 41.961 23.7038C42.1336 23.5138 42.3012 23.3196 42.4597 23.118C43.0979 22.3155 43.5851 21.3902 43.8564 20.4001C44.1237 19.4101 44.2035 18.3702 44.1003 17.3495C43.9942 16.3296 43.7086 15.3271 43.2473 14.4101C42.7859 13.4939 42.1427 12.6715 41.3743 11.9918C40.6074 11.3096 39.7211 10.7661 38.7767 10.3661C38.5402 10.2665 38.3004 10.176 38.0556 10.098C37.8116 10.0184 37.5618 9.9611 37.3112 9.90551C36.8099 9.79514 36.2987 9.73122 35.7867 9.7138C34.7635 9.67978 33.7253 9.84826 32.7867 10.264C31.8464 10.674 31.0116 11.3171 30.3601 12.1088C30.0323 12.503 29.751 12.9362 29.5294 13.3993C29.3054 13.8607 29.1544 14.3553 29.0498 14.8566C28.9444 15.3586 28.8805 15.869 28.8133 16.3777C28.7477 16.8864 28.7079 17.3993 28.6962 17.9122C28.6838 18.425 28.6962 18.9396 28.7361 19.4508C28.7543 19.7072 28.7826 19.962 28.8133 20.2167C28.8323 20.4723 28.9402 20.7147 29.0971 20.9155C29.2548 21.1163 29.4631 21.2789 29.7012 21.3711C29.9402 21.4732 30.2041 21.4342 30.4597 21.4433C30.9734 21.4466 31.4871 21.459 32.0008 21.479C33.0274 21.5204 34.0531 21.5943 35.0747 21.703C37.1178 21.9188 39.1477 22.269 41.1452 22.7503L41.1419 22.7645C39.2124 22.3661 37.2597 22.0823 35.2962 21.9163C34.3145 21.8333 33.3303 21.7794 32.346 21.7553C31.8539 21.7429 31.361 21.7387 30.8689 21.7412C30.6224 21.742 30.3759 21.7453 30.1303 21.7503L29.9461 21.7545C29.8855 21.7578 29.8241 21.7661 29.7643 21.7802C29.6448 21.8076 29.5311 21.8582 29.4315 21.9296C29.1875 22.1337 29.0099 22.4134 28.9236 22.7205C28.8381 23.0267 28.7734 23.3412 28.7585 23.6599C28.7502 23.8192 28.7527 23.9785 28.7651 24.137L28.8157 24.6126C28.8489 24.9296 28.8788 25.2474 28.9062 25.5653C29.0158 26.8366 29.0788 28.1121 29.0938 29.3877C29.1236 31.9396 28.9635 34.4931 28.6149 37.0209H28.6074C29 33.4823 29.0398 29.9064 28.7245 26.3603C28.6854 25.9171 28.6406 25.4748 28.5908 25.0325L28.512 24.3694C28.4913 24.1478 28.4655 23.9271 28.4174 23.7097C28.3709 23.4922 28.3104 23.2773 28.2307 23.0698C28.1544 22.8615 28.0689 22.654 27.9469 22.4673C27.8265 22.2806 27.6655 22.1204 27.4755 22.0034C27.2855 21.8864 27.0722 21.8134 26.8556 21.7653C25.9801 21.6076 25.0821 21.5902 24.1967 21.6731C23.7543 21.7171 23.3137 21.7852 22.8796 21.8815C22.4456 21.9786 22.0157 22.0972 21.6008 22.2599C21.224 22.4184 20.8581 22.6026 20.5054 22.8093C20.1519 23.0151 19.8091 23.2383 19.4664 23.4615C18.7817 23.9088 18.127 24.4018 17.507 24.9354L17.4929 24.947L17.4946 24.9495ZM17.5294 24.9196C18.1427 24.3927 18.79 23.9055 19.4664 23.4624C19.8091 23.2391 20.1519 23.0159 20.5054 22.8101C20.8581 22.6034 21.224 22.4184 21.6008 22.2607C22.0149 22.098 22.4456 21.9794 22.8796 21.8823C23.3137 21.786 23.7543 21.7171 24.1975 21.6731C25.083 21.5893 25.9809 21.6068 26.8573 21.7645C27.0738 21.8126 27.2879 21.8856 27.478 22.0026C27.668 22.1196 27.829 22.2798 27.9502 22.4673C28.0722 22.654 28.1576 22.8615 28.234 23.0698C28.3137 23.2773 28.3743 23.4922 28.4207 23.7097C28.4689 23.9271 28.4946 24.1487 28.5153 24.3703L28.5942 25.0325C28.644 25.4748 28.6888 25.9171 28.7286 26.3603C29.0448 29.9055 29.0058 33.4831 28.6141 37.0209H28.6066C28.9543 34.4922 29.1137 31.9387 29.083 29.3877C29.0672 28.1121 29.0041 26.8366 28.8946 25.5661C28.8672 25.2482 28.8373 24.9313 28.8033 24.6134L28.7527 24.1379C28.7402 23.9785 28.7377 23.8184 28.746 23.659C28.761 23.3395 28.8265 23.025 28.912 22.7171C28.9983 22.4093 29.1776 22.1271 29.4232 21.9213C29.5236 21.8491 29.639 21.7976 29.7602 21.7694C29.8207 21.7553 29.8821 21.7462 29.9435 21.7429L30.1286 21.7387C30.3751 21.7337 30.6216 21.7304 30.8672 21.7287C31.3601 21.7263 31.8523 21.7304 32.3452 21.7429C33.3303 21.7669 34.3145 21.82 35.2962 21.903C37.2597 22.0682 39.2141 22.352 41.1436 22.7503L41.1402 22.7645C39.1427 22.2839 37.1145 21.9346 35.0713 21.7188C34.0498 21.6109 33.0249 21.537 31.9991 21.4956C31.4863 21.4756 30.9726 21.4632 30.4589 21.4599H30.0738C29.9444 21.4599 29.8149 21.4325 29.6946 21.3868C29.4531 21.2931 29.2423 21.1288 29.083 20.9254C28.9236 20.7229 28.8141 20.4765 28.795 20.2175C28.7643 19.9628 28.7361 19.7072 28.7178 19.4508C28.678 18.9387 28.6647 18.4242 28.6772 17.9105C28.6888 17.3968 28.7286 16.8839 28.7942 16.3736C28.8614 15.8648 28.9245 15.3536 29.0299 14.8507C29.1344 14.3478 29.2855 13.8516 29.5112 13.3885C29.7328 12.9238 30.0157 12.4897 30.3436 12.0939C30.9967 11.2997 31.8332 10.6532 32.7776 10.2424C33.7195 9.82417 34.761 9.65573 35.7875 9.68893C36.3012 9.70635 36.8141 9.77022 37.3161 9.88059C37.5668 9.93623 37.8182 9.9943 38.063 10.074C38.3079 10.152 38.5485 10.2432 38.7859 10.3429C39.7328 10.7437 40.6207 11.2889 41.39 11.9719C42.1602 12.6524 42.8066 13.4773 43.2688 14.3968C43.732 15.3155 44.0184 16.3213 44.1255 17.3445C44.2282 18.3678 44.1493 19.4109 43.8815 20.4043C43.6089 21.3976 43.1203 22.3271 42.4805 23.1321C42.3211 23.3345 42.1535 23.5288 41.9809 23.7196C41.8091 23.9105 41.6324 24.0972 41.4473 24.2765C41.078 24.635 40.6813 24.9644 40.2614 25.2615L40.2464 25.2374C41.4805 24.5719 42.5502 23.5976 43.3054 22.4151C44.0631 21.2341 44.4739 19.8375 44.4882 18.4366C44.4955 17.7354 44.4058 17.035 44.2373 16.3545C44.2191 16.269 44.1935 16.1852 44.1692 16.1005C44.1445 16.0167 44.122 15.932 44.0964 15.8482C44.0397 15.6823 43.9885 15.5147 43.9235 15.3512C43.8009 15.0225 43.6588 14.7014 43.501 14.3885C43.1892 13.7603 42.7942 13.1752 42.3485 12.6341C41.9021 12.0939 41.3975 11.6001 40.8423 11.1719C40.2871 10.7437 39.6813 10.381 39.0365 10.1047C38.7153 9.96362 38.3842 9.8474 38.0473 9.75115C37.7103 9.65322 37.3684 9.57271 37.0232 9.51213C36.678 9.45155 36.3286 9.41424 35.9792 9.39348C35.8041 9.38685 35.629 9.37853 35.4539 9.38434C35.2788 9.38269 35.1037 9.39677 34.9286 9.40843C34.2299 9.45987 33.5402 9.62583 32.8921 9.89225C32.7311 9.96193 32.5676 10.025 32.4149 10.1122C32.2606 10.1943 32.1029 10.2715 31.956 10.3677C31.6581 10.552 31.3726 10.757 31.1095 10.9885C30.5801 11.4474 30.1212 11.9868 29.746 12.5785C28.9892 13.7586 28.5618 15.1478 28.5369 16.5503V16.552L28.1427 20.235V20.2375L28.1419 20.2399C28.0581 20.4798 27.9336 20.7105 27.7543 20.8947C27.5751 21.079 27.3394 21.2059 27.088 21.2574C26.9626 21.2839 26.834 21.2939 26.7071 21.2922C26.5809 21.2922 26.4548 21.2939 26.3278 21.2964C26.0755 21.3022 25.8224 21.3113 25.5701 21.3254C24.5618 21.3819 23.5527 21.4922 22.5701 21.7304C22.4464 21.7578 22.3253 21.7927 22.2041 21.8283C22.1435 21.8457 22.0821 21.8623 22.0224 21.8815L21.8432 21.9429C21.6033 22.02 21.3709 22.1204 21.1452 22.2325C20.6946 22.459 20.2788 22.7487 19.8639 23.0366C19.4481 23.3246 19.0381 23.62 18.6473 23.9403C18.4515 24.0997 18.2597 24.2649 18.0722 24.4333C17.9784 24.518 17.8855 24.6034 17.7933 24.6898L17.6564 24.8209C17.634 24.8425 17.61 24.8673 17.5925 24.8815C17.5759 24.8947 17.5519 24.9039 17.5278 24.9213L17.5294 24.9196Z" fill="#9F8B61"/>
<path d="M20.5693 31.2771C20.5444 31.273 20.5453 29.9892 21.0739 28.5452C21.8116 26.5319 23.1884 25.2663 24.1685 24.3659C25.0664 23.541 25.7668 23.014 26.4664 22.6348C26.8647 22.419 27.2133 22.2672 27.4639 22.1667C27.1436 22.3369 26.7195 22.5784 26.244 22.9029C25.6357 23.3178 25.0241 23.8107 24.3071 24.5211C22.9378 25.8779 21.8664 26.9319 21.2 28.5966C20.6233 30.0365 20.595 31.2813 20.5701 31.2771H20.5693Z" fill="#9F8B61"/>
<path d="M27.6291 23.2407C27.537 24.3353 27.3303 25.4233 27.0067 26.4789C26.688 27.5353 26.249 28.5553 25.727 29.5287C25.1934 30.4955 24.5743 31.4166 23.8598 32.2581C23.1535 33.1055 22.3552 33.8731 21.4938 34.5544C21.8905 34.1743 22.2805 33.7901 22.6473 33.3835C23.0191 32.9826 23.371 32.5635 23.7087 32.1353C23.8797 31.9229 24.0382 31.7005 24.2025 31.483C24.3577 31.259 24.5195 31.0391 24.6647 30.8092C24.9693 30.3569 25.2457 29.8872 25.5079 29.41C25.6341 29.1685 25.7685 28.9312 25.883 28.6847L26.0615 28.317L26.2266 27.9436C26.4515 27.4473 26.6432 26.9361 26.8224 26.4208C26.9975 25.9038 27.1544 25.3801 27.2863 24.8499C27.4258 24.3204 27.5303 23.7827 27.6291 23.2424V23.2407Z" fill="#9F8B61"/>
<path d="M29.2465 23.5461C29.6523 25.9386 30.6838 28.2922 32.4473 29.9901C32.9544 30.4739 33.5319 30.9113 33.9154 31.5154C34.4913 32.4233 34.7469 33.5055 34.7519 34.5727C34.7436 36.7038 33.9569 38.771 32.8681 40.576C32.1129 41.7777 31.0382 42.7179 30.0407 43.7048C28.5336 45.1651 27.0639 46.6631 25.6639 48.2274C24.7228 49.2631 23.815 50.3287 22.9187 51.4051C23.771 50.2932 24.6606 49.2107 25.5726 48.1468C26.9502 46.5595 28.3892 45.0217 29.8905 43.5505C30.8714 42.5686 31.9319 41.6324 32.6672 40.4482C33.7137 38.6739 34.5079 36.654 34.5261 34.5727C34.5287 33.5453 34.2855 32.5021 33.7402 31.6258C33.3759 31.0316 32.8199 30.6009 32.3261 30.1129C30.5702 28.3743 29.5635 25.9677 29.2457 23.5444L29.2465 23.5461Z" fill="#9F8B61"/>
<path d="M30.2016 29.1892C30.7112 30.0888 31.1211 31.0489 31.4 32.0506C31.6714 33.0531 31.8 34.0996 31.751 35.1436C31.7245 35.6647 31.6523 36.1851 31.5336 36.6955C31.4116 37.2058 31.2298 37.6996 31.0182 38.1776C30.5834 39.1303 30.0182 40.0058 29.4556 40.8739C28.312 42.5992 27.161 44.3122 26.0705 46.0672C25.5228 46.9426 24.9884 47.8274 24.4664 48.7188C23.9378 49.6067 23.429 50.5063 22.9203 51.4068C23.3792 50.4799 23.8672 49.5677 24.361 48.659C24.8622 47.7542 25.3784 46.8572 25.9079 45.9676C26.4348 45.0771 26.9875 44.2017 27.546 43.3311C28.1062 42.4614 28.6838 41.6025 29.2481 40.7386C29.8141 39.8763 30.3734 39.0083 30.8058 38.0813C31.0182 37.6174 31.2 37.1394 31.3236 36.6448C31.356 36.5212 31.3784 36.3958 31.4058 36.2714C31.4182 36.2091 31.434 36.1469 31.444 36.0838L31.4722 35.8946C31.4896 35.7685 31.5153 35.6431 31.5253 35.5154L31.5618 35.1336C31.6323 34.112 31.5278 33.0805 31.283 32.0821C31.1635 31.5817 31.0099 31.0896 30.8265 30.6075C30.6423 30.1262 30.4323 29.6531 30.2016 29.1909V29.1892Z" fill="#9F8B61"/>
<path d="M29.8564 22.6373C32.5891 24.3087 34.9452 26.6249 36.5062 29.4373C37.3012 30.8282 38.0124 32.3427 38.0954 33.9751C38.2829 36.8456 36.9161 39.5967 34.9858 41.6473C34.1344 42.5095 33.1286 43.1909 32.1568 43.8979C30.546 45.0753 28.8589 46.1469 27.2257 47.2888C25.624 48.4722 24.1875 49.8662 22.9194 51.4059C23.8796 50.1262 24.9792 48.9554 26.1817 47.8989C27.3833 46.839 28.7601 46.0074 30.0489 45.0653C31.546 43.9378 33.4365 42.7361 34.7551 41.424C36.2124 39.8448 37.3576 37.8913 37.6929 35.7485C38.068 33.3577 37.4116 31.6232 36.2838 29.5577C34.79 26.7477 32.4887 24.4058 29.8572 22.6365L29.8564 22.6373Z" fill="#9F8B61"/>
<path d="M20.8481 9.70117C20.854 10.2663 20.893 10.8265 20.9851 11.3751C21.0399 11.9269 21.1502 12.4729 21.3145 13.0024C21.6448 14.0647 22.2191 15.0365 22.9187 15.897C23.5278 16.6539 24.5618 17.6157 25.2506 18.3203L26.4448 19.5136C26.8133 19.941 27.1892 20.3617 27.5519 20.7958C27.1178 20.4339 26.6971 20.0588 26.2697 19.6904L25.0755 18.497C24.3726 17.7767 23.351 16.8306 22.7262 16.0547C21.2814 14.3111 20.3992 11.9692 20.8481 9.702V9.70117Z" fill="#9F8B61"/>
<path d="M18.6024 26.3303C20.6904 24.4075 23.2597 22.9926 26.0024 22.2615C23.3327 23.2125 20.8381 24.5843 18.6024 26.3303Z" fill="#9F8B61"/>
<path d="M30.1809 7.43158C29.9934 7.6407 29.815 7.85815 29.6382 8.07638C29.5535 8.18844 29.4664 8.29798 29.3834 8.41165C29.3021 8.52618 29.2183 8.63824 29.1403 8.75442C28.8191 9.21332 28.5311 9.69549 28.2772 10.1943C28.1444 10.4407 28.0365 10.6988 27.9162 10.9511L27.7585 11.3395C27.7328 11.4042 27.7046 11.4681 27.6814 11.5336L27.6125 11.732C27.5677 11.8639 27.5195 11.9951 27.4772 12.1287L27.3627 12.5312C27.3436 12.5984 27.3237 12.6648 27.3062 12.7328L27.2614 12.937L27.171 13.3453C27.1444 13.4822 27.1245 13.62 27.1004 13.7577L27.0664 13.9644L27.049 14.0673L27.0382 14.171L26.9967 14.5876L26.9759 14.7959L26.966 15.005C26.9378 15.5627 26.9585 16.122 27.0083 16.6789C27.0589 17.2357 27.1552 17.7884 27.288 18.3328C27.4141 18.8789 27.5892 19.4133 27.7876 19.9395C27.6706 19.6839 27.5643 19.4225 27.4689 19.1577C27.3718 18.893 27.2855 18.625 27.2092 18.3527C27.0589 17.8092 26.9477 17.2532 26.8814 16.6922C26.7452 15.5685 26.7992 14.4249 27.0075 13.3121L27.1029 12.898L27.1502 12.6913C27.1685 12.6233 27.1901 12.5552 27.2092 12.4872L27.3286 12.0797C27.3726 11.9453 27.4225 11.8125 27.4689 11.6789L27.5403 11.4789C27.5643 11.4125 27.5942 11.3478 27.6208 11.2822L27.7842 10.8905C27.9071 10.6357 28.0233 10.3776 28.1644 10.1328C28.7021 9.13865 29.3809 8.22245 30.1801 7.42993L30.1809 7.43158Z" fill="#9F8B61"/>
<path d="M36.4349 10.8101C36.0448 11.1544 35.6573 11.4988 35.288 11.8623C34.8996 12.2034 34.5237 12.5594 34.1594 12.9271C33.4315 13.6623 32.7544 14.4474 32.1344 15.2756C31.5146 16.1038 30.9494 16.9727 30.4482 17.8781C30.1975 18.3304 29.9618 18.791 29.7427 19.2598C29.4979 19.7163 29.2739 20.1843 29.054 20.6557C29.2108 20.1594 29.3967 19.6731 29.5925 19.1893C29.8141 18.7179 30.0506 18.2532 30.3037 17.7976C30.8083 16.8864 31.3776 16.0101 32.0017 15.176C32.6257 14.342 33.3079 13.5511 34.0415 12.8109C34.4075 12.4407 34.7876 12.0831 35.1776 11.7378C35.3809 11.5752 35.5884 11.4167 35.7975 11.2615C36.0058 11.1055 36.2191 10.9561 36.4349 10.8109V10.8101Z" fill="#9F8B61"/>
<path d="M40.9221 12.2879C39.8839 13.751 38.561 15.0158 37.044 15.9776C36.5353 16.2987 36.0034 16.5751 35.4764 16.8506C33.8839 17.6548 32.3536 18.5635 30.8996 19.5967C30.4108 19.9353 29.9361 20.2946 29.4614 20.6539C30.3444 19.8539 31.283 19.1112 32.2722 18.4415C33.2573 17.7668 34.3013 17.1751 35.3619 16.6298C35.8921 16.3585 36.4175 16.0854 36.9204 15.7776C38.4374 14.8481 39.7726 13.6506 40.9221 12.2871V12.2879Z" fill="#9F8B61"/>
<path d="M42.503 19.386C41.9221 19.3719 41.3411 19.3594 40.7603 19.3694C40.1802 19.3727 39.5992 19.3885 39.02 19.4208C38.4408 19.4548 37.8623 19.4897 37.2847 19.5461C36.7071 19.6009 36.132 19.6715 35.5577 19.7536C34.4084 19.9088 33.2681 20.1254 32.1378 20.3876C31.5727 20.5171 31.01 20.6607 30.4507 20.8167C29.8897 20.9677 29.3345 21.1379 28.7802 21.3113C29.3229 21.1022 29.8739 20.9163 30.4283 20.7387C30.9843 20.5661 31.5445 20.4084 32.1079 20.264C32.6714 20.1163 33.2408 19.9943 33.8125 19.8822C34.3843 19.7719 34.9578 19.6706 35.5345 19.5893C36.6889 19.4333 37.8507 19.327 39.0142 19.2939C39.5959 19.2773 40.1785 19.2756 40.7603 19.2889C41.342 19.3071 41.9229 19.3354 42.5022 19.3868L42.503 19.386Z" fill="#9F8B61"/>
<path d="M31.385 22.4763C32.1668 22.5369 32.9443 22.7153 33.6738 23.0191C34.0389 23.1693 34.3925 23.3502 34.7286 23.561C35.0655 23.7701 35.3767 24.0174 35.6821 24.2614C36.2846 24.7593 36.9211 25.2058 37.6091 25.5734C38.2946 25.9435 39.0182 26.244 39.7634 26.4871C39.0008 26.3062 38.2531 26.044 37.5493 25.6888C37.1958 25.5145 36.8556 25.3128 36.5253 25.0971C36.195 24.8805 35.8838 24.6357 35.5775 24.3917C35.273 24.1444 34.9701 23.9029 34.6431 23.6946C34.3195 23.4813 33.9751 23.3012 33.6215 23.1394C32.9128 22.8216 32.1576 22.6025 31.3842 22.478L31.385 22.4763Z" fill="#9F8B61"/>
<path d="M26 52C19.0548 52 12.5261 49.2956 7.61492 44.385C2.70456 39.4747 0 32.9452 0 26C0 19.0548 2.70456 12.5261 7.61492 7.61492C12.5261 2.70456 19.0556 0 26 0C32.9444 0 39.4739 2.70456 44.385 7.61492C49.2964 12.5253 52 19.0548 52 26C52 32.9452 49.2956 39.4739 44.385 44.385C39.4747 49.2956 32.9452 52 26 52ZM26 0.663901C19.2324 0.663901 12.8697 3.29959 8.08466 8.08466C3.29959 12.8697 0.663901 19.2324 0.663901 26C0.663901 32.7676 3.29959 39.1303 8.08466 43.9153C12.8697 48.7006 19.2324 51.3361 26 51.3361C32.7676 51.3361 39.1303 48.7006 43.9153 43.9153C48.7006 39.1303 51.3361 32.7676 51.3361 26C51.3361 19.2324 48.7006 12.8697 43.9153 8.08466C39.1303 3.29959 32.7676 0.663901 26 0.663901Z" fill="#9F8B61"/>
<path d="M21.8158 14.702C21.9533 14.702 22.0647 14.5905 22.0647 14.4531C22.0647 14.3156 21.9533 14.2041 21.8158 14.2041C21.6783 14.2041 21.5668 14.3156 21.5668 14.4531C21.5668 14.5905 21.6783 14.702 21.8158 14.702Z" fill="#9F8B61"/>
<path d="M23.083 20.1742C23.1975 20.1742 23.2904 20.0813 23.2904 19.9668C23.2904 19.8522 23.1975 19.7593 23.083 19.7593C22.9684 19.7593 22.8755 19.8522 22.8755 19.9668C22.8755 20.0813 22.9684 20.1742 23.083 20.1742Z" fill="#9F8B61"/>
<path d="M19.6996 23.4905C19.8601 23.4905 19.9901 23.3605 19.9901 23.2001C19.9901 23.0397 19.8601 22.9097 19.6996 22.9097C19.5392 22.9097 19.4092 23.0397 19.4092 23.2001C19.4092 23.3605 19.5392 23.4905 19.6996 23.4905Z" fill="#9F8B61"/>
<path d="M23.8531 25.1045C24.0149 25.1045 24.1461 24.9733 24.1461 24.8115C24.1461 24.6497 24.0149 24.5186 23.8531 24.5186C23.6914 24.5186 23.5602 24.6497 23.5602 24.8115C23.5602 24.9733 23.6914 25.1045 23.8531 25.1045Z" fill="#9F8B61"/>
<path d="M37.732 36.9295C37.9332 36.9295 38.0963 36.7664 38.0963 36.5652C38.0963 36.364 37.9332 36.2009 37.732 36.2009C37.5308 36.2009 37.3677 36.364 37.3677 36.5652C37.3677 36.7664 37.5308 36.9295 37.732 36.9295Z" fill="#9F8B61"/>
<path d="M28.966 33.2423C29.0834 33.2423 29.1785 33.1472 29.1785 33.0298C29.1785 32.9125 29.0834 32.8174 28.966 32.8174C28.8487 32.8174 28.7535 32.9125 28.7535 33.0298C28.7535 33.1472 28.8487 33.2423 28.966 33.2423Z" fill="#9F8B61"/>
<path d="M23.083 25.8274C23.2145 25.8274 23.3212 25.7208 23.3212 25.5893C23.3212 25.4577 23.2145 25.3511 23.083 25.3511C22.9515 25.3511 22.8448 25.4577 22.8448 25.5893C22.8448 25.7208 22.9515 25.8274 23.083 25.8274Z" fill="#9F8B61"/>
<path d="M25.3087 30.2796C25.4403 30.2796 25.5469 30.1729 25.5469 30.0414C25.5469 29.9099 25.4403 29.8032 25.3087 29.8032C25.1772 29.8032 25.0706 29.9099 25.0706 30.0414C25.0706 30.1729 25.1772 30.2796 25.3087 30.2796Z" fill="#9F8B61"/>
<path d="M22.4813 26.4198C22.5729 26.4198 22.6472 26.3455 22.6472 26.2539C22.6472 26.1622 22.5729 26.0879 22.4813 26.0879C22.3896 26.0879 22.3153 26.1622 22.3153 26.2539C22.3153 26.3455 22.3896 26.4198 22.4813 26.4198Z" fill="#9F8B61"/>
<path d="M19.102 23.8466C19.2166 23.8466 19.3095 23.7537 19.3095 23.6391C19.3095 23.5245 19.2166 23.4316 19.102 23.4316C18.9874 23.4316 18.8945 23.5245 18.8945 23.6391C18.8945 23.7537 18.9874 23.8466 19.102 23.8466Z" fill="#9F8B61"/>
<path d="M22.3403 20.0331C22.4319 20.0331 22.5063 19.9588 22.5063 19.8671C22.5063 19.7755 22.4319 19.7012 22.3403 19.7012C22.2486 19.7012 22.1743 19.7755 22.1743 19.8671C22.1743 19.9588 22.2486 20.0331 22.3403 20.0331Z" fill="#9F8B61"/>
<path d="M29.0938 4.44406C29.2671 4.44406 29.4075 4.30359 29.4075 4.13034C29.4075 3.9571 29.2671 3.81665 29.0938 3.81665C28.9206 3.81665 28.7802 3.9571 28.7802 4.13034C28.7802 4.30359 28.9206 4.44406 29.0938 4.44406Z" fill="#9F8B61"/>
<path d="M25.4473 4.67063C25.5954 4.67063 25.7154 4.5506 25.7154 4.40257C25.7154 4.25453 25.5954 4.13452 25.4473 4.13452C25.2993 4.13452 25.1793 4.25453 25.1793 4.40257C25.1793 4.5506 25.2993 4.67063 25.4473 4.67063Z" fill="#9F8B61"/>
<path d="M25.2813 10.81C25.5618 10.81 25.7892 10.5826 25.7892 10.3021C25.7892 10.0216 25.5618 9.79419 25.2813 9.79419C25.0009 9.79419 24.7734 10.0216 24.7734 10.3021C24.7734 10.5826 25.0009 10.81 25.2813 10.81Z" fill="#9F8B61"/>
<path d="M26.2241 8.96107C26.4637 8.96107 26.6581 8.76676 26.6581 8.52704C26.6581 8.28737 26.4637 8.09302 26.2241 8.09302C25.9843 8.09302 25.79 8.28737 25.79 8.52704C25.79 8.76676 25.9843 8.96107 26.2241 8.96107Z" fill="#9F8B61"/>
<path d="M35.644 16.9037C35.7815 16.9037 35.893 16.7922 35.893 16.6547C35.893 16.5172 35.7815 16.4058 35.644 16.4058C35.5065 16.4058 35.395 16.5172 35.395 16.6547C35.395 16.7922 35.5065 16.9037 35.644 16.9037Z" fill="#9F8B61"/>
<path d="M33.8651 23.2826C33.9692 23.1928 33.9809 23.0356 33.8912 22.9314C33.8014 22.8272 33.6442 22.8156 33.5401 22.9053C33.4359 22.9951 33.4242 23.1523 33.514 23.2565C33.6037 23.3606 33.7609 23.3723 33.8651 23.2826Z" fill="#9F8B61"/>
<path d="M34.4105 23.5672C34.4997 23.4904 34.5097 23.3557 34.4328 23.2665C34.356 23.1772 34.2213 23.1672 34.1321 23.2441C34.0428 23.321 34.0328 23.4557 34.1097 23.5449C34.1866 23.6341 34.3213 23.6441 34.4105 23.5672Z" fill="#9F8B61"/>
<path d="M34.8066 23.8812C34.8983 23.8812 34.9726 23.807 34.9726 23.7153C34.9726 23.6236 34.8983 23.5493 34.8066 23.5493C34.7149 23.5493 34.6406 23.6236 34.6406 23.7153C34.6406 23.807 34.7149 23.8812 34.8066 23.8812Z" fill="#9F8B61"/>
<path d="M34.8607 17.3187C35.044 17.3187 35.1926 17.1701 35.1926 16.9867C35.1926 16.8034 35.044 16.6548 34.8607 16.6548C34.6773 16.6548 34.5287 16.8034 34.5287 16.9867C34.5287 17.1701 34.6773 17.3187 34.8607 17.3187Z" fill="#9F8B61"/>
</g>
</svg>
