<svg width="38" height="33" viewBox="0 0 38 33" fill="none" xmlns="http://www.w3.org/2000/svg">
<path d="M36.1529 20.1082C34.7277 21.5404 31.9739 21.2483 30.4392 20.1317C30.6123 19.7713 30.928 17.5511 31.0269 17.4569C31.0622 17.4227 31.4026 17.4251 31.5675 17.3509C32.5051 16.9257 33.1529 16.4051 33.5086 15.4027C33.6959 14.8739 34.0693 13.3298 33.2083 13.3498C32.6617 13.3627 32.8761 14.4193 32.7489 14.8786C32.4262 16.0364 31.3944 16.643 30.246 16.7325C29.7855 16.769 28.1424 16.524 27.9692 16.6348C27.9304 16.6595 27.835 16.961 27.8397 17.034C27.8809 17.6489 29.5864 17.63 30.0693 17.5593C29.7878 20.9491 27.9103 22.4662 24.5064 22.0045C23.3509 21.8478 23.2873 21.4238 22.5253 20.9232C21.8327 20.4686 21.6124 21.5416 21.2167 22.074C19.8327 23.9397 17.9128 24.3825 15.7044 23.6216C15.0554 23.3979 14.2227 22.4085 13.9883 22.3849C13.6809 22.3543 13.1756 22.7665 12.7869 22.8313C11.2345 23.0928 9.07552 22.4627 8.33348 20.9809C7.5832 19.4839 7.83879 17.7796 9.27928 16.8491C9.52781 16.6889 10.4583 16.3226 10.5054 16.1872C10.6338 15.8209 10.3217 15.199 10.2852 14.7903C10.0543 12.1979 12.238 10.7444 14.6443 11.3722C15.0531 11.4794 15.8728 11.9788 16.2062 11.8881C16.6184 11.7762 16.5124 10.9977 16.669 10.5748C17.4146 8.55602 21.2614 8.5301 22.7078 9.78803C23.0235 10.0613 23.4298 10.9105 23.9316 10.5937C24.6371 10.1473 22.8869 8.79512 22.4958 8.58782C20.2874 7.4147 16.2403 7.97181 15.702 10.8469C12.9836 9.41583 9.37704 11.1143 9.33935 14.3274C9.33582 14.6018 9.59023 15.5688 9.5231 15.6831C9.48541 15.7478 8.47953 16.3191 8.25692 16.4993C7.64562 16.9987 7.72689 17.5075 6.80818 16.5028C5.82468 15.4275 5.74577 13.7149 6.79404 12.6549C7.00959 12.437 7.85881 12.0047 7.9177 11.828C8.04373 11.4476 7.42183 11.0554 7.34763 10.543C7.15917 9.24269 8.23572 8.14495 9.51838 8.12846C9.86114 8.12375 10.4006 8.31574 10.6373 8.20031C10.8976 8.07428 11.1002 7.22978 11.3464 6.90116C12.0449 5.96597 13.1344 5.9695 14.1779 6.18858C14.516 6.25925 15.2922 6.82343 15.4559 6.17091C15.589 5.64089 14.4524 5.30756 14.0601 5.24513C12.8693 5.05668 11.6597 5.20744 10.8128 6.13204C10.5514 6.41825 10.2133 7.26747 10.158 7.30634C10.0684 7.37112 9.72451 7.19444 9.53252 7.20622C7.92477 7.30634 6.35824 8.63022 6.39476 10.311C6.403 10.7126 6.79169 11.3981 6.76106 11.596C6.75282 11.6502 6.1109 12.0989 5.92951 12.3215C4.85297 13.6442 4.97193 15.6159 6.0414 16.9151C6.23339 17.1483 7.18626 17.9174 7.211 17.9928C7.29345 18.2531 7.09557 19.14 6.78462 19.3014C5.12387 20.1576 2.20165 18.9115 2.17103 16.8998C2.16514 16.5335 2.53733 15.5841 2.37833 15.3368C2.34299 15.2826 1.52793 15.007 1.2264 14.7808C0.171055 13.9917 -0.151673 12.7974 0.0626941 11.5218C0.293551 10.1496 2.18869 9.68438 2.26054 9.47472C2.35477 9.20029 1.96962 8.12022 2.04735 7.4995C2.23227 6.00955 4.23696 4.5031 5.63858 4.26047C5.99194 4.19922 6.4136 4.33938 6.74575 4.1898C7.0037 4.07437 7.41948 3.18629 7.69038 2.89654C9.1297 1.36654 11.6833 1.16749 13.6055 1.69044C13.8257 1.75051 14.1697 2.02377 14.3275 1.99314C14.47 1.96605 15.2698 1.05088 15.543 0.854183C17.2474 -0.380183 20.3474 -0.283601 21.8822 1.18869C22.186 1.48079 22.6195 2.40185 22.8503 2.46899C23.1731 2.56204 23.7514 2.04968 24.1542 1.92719C26.0741 1.34298 29.0375 2.33118 29.9362 4.20629C30.0929 4.53372 30.1506 5.13913 30.3732 5.30285C30.6641 5.51604 30.8585 5.31345 31.0681 5.33818C32.895 5.55608 34.849 6.31578 35.4921 8.19207C35.6888 8.76567 35.7194 9.90228 35.8984 10.2592C35.9785 10.4193 36.9773 10.7998 37.3166 11.1967C38.2459 12.2815 38.1658 14.7632 37.4473 15.9292C37.2506 16.2484 36.6593 16.7066 36.6028 16.9598C36.5604 17.1483 36.7712 17.4687 36.7842 17.7372C36.8242 18.6453 36.8301 19.4286 36.1517 20.1094L36.1529 20.1082ZM27.1601 5.74571C27.0364 5.65973 26.6654 5.10026 26.4204 4.8965C25.1695 3.85647 23.0977 3.64329 21.5912 4.19333C21.1307 4.36176 19.0106 5.49955 19.9387 6.08022C20.3651 6.34758 20.9823 5.45243 21.4334 5.21333C22.6725 4.55846 25.1424 4.69391 26.1294 5.77516C26.3203 5.98481 26.4098 6.36054 26.5876 6.49481C26.8503 6.69269 27.5429 6.71978 27.9374 6.91176C30.1011 7.96357 29.9822 11.6572 27.5087 12.232C27.2614 12.2897 26.5735 12.2167 26.4416 12.4028C26.3438 12.5418 26.2731 13.4051 26.0882 13.7561C25.3438 15.1731 23.325 15.2767 21.9976 14.7361C21.6042 14.5759 20.9446 13.9458 20.6113 14.0412C20.2544 14.1448 20.1284 15.0506 19.9623 15.4027C19.1413 17.1471 17.2591 17.8244 15.5018 16.9916C15.119 16.8102 14.0519 15.5665 13.8305 16.4651C13.6844 17.0564 15.2015 17.8562 15.6726 17.9987C16.8869 18.365 18.5724 18.1942 19.5877 17.3862C20.2897 16.8279 20.6113 15.961 21.0553 15.2166C22.6395 16.292 25.4946 16.2154 26.6324 14.537C26.8232 14.2555 27.1707 13.179 27.2343 13.1366C27.3756 13.0388 27.7384 13.1024 27.9551 13.0329C30.9256 12.0754 31.1412 7.76687 28.5723 6.27691C28.1365 6.02368 27.365 5.89059 27.1577 5.74689L27.1601 5.74571Z" fill="url(#paint0_linear_2169_3313)"/>
<path d="M34.4272 21.9177C33.5568 27.5206 28.0045 28.6985 23.471 26.2191C22.8078 25.8564 21.1459 24.6844 20.8196 24.0331C20.6842 23.7634 21.438 23.2216 21.65 22.9789C21.8055 22.8011 22.2095 22.0685 22.3532 22.0567C24.7089 23.5808 28.3543 23.317 30.0091 20.8777C30.5168 21.1851 31.8159 21.9165 32.366 21.9165H34.4272V21.9177Z" fill="url(#paint1_linear_2169_3313)"/>
<path d="M20.04 24.4074C21.3215 26.259 23.4168 27.3767 25.5393 28.0375C25.6889 28.8102 25.4733 32.3696 24.9233 32.7606C24.4086 33.1269 23.3367 33.0704 22.8821 32.5792C22.4593 32.1246 22.1094 30.6664 21.8079 30.0021C20.8692 27.9339 19.5841 26.2319 17.8209 24.802C18.6101 24.7914 19.2909 24.6112 20.04 24.4062V24.4074Z" fill="url(#paint2_linear_2169_3313)"/>
<defs>
<linearGradient id="paint0_linear_2169_3313" x1="35.8789" y1="2.11815" x2="14.7873" y2="33.6662" gradientUnits="userSpaceOnUse">
<stop stop-color="#C59D5F"/>
<stop offset="0.5" stop-color="#7A684D"/>
<stop offset="1" stop-color="#2F333B"/>
</linearGradient>
<linearGradient id="paint1_linear_2169_3313" x1="33.6668" y1="21.4584" x2="28.5937" y2="31.3807" gradientUnits="userSpaceOnUse">
<stop stop-color="#C59D5F"/>
<stop offset="0.5" stop-color="#7A684D"/>
<stop offset="1" stop-color="#2F333B"/>
</linearGradient>
<linearGradient id="paint2_linear_2169_3313" x1="25.1521" y1="25.1653" x2="17.0757" y2="32.0538" gradientUnits="userSpaceOnUse">
<stop stop-color="#C59D5F"/>
<stop offset="0.5" stop-color="#7A684D"/>
<stop offset="1" stop-color="#2F333B"/>
</linearGradient>
</defs>
</svg>
