<svg width="27" height="39" viewBox="0 0 27 39" fill="none" xmlns="http://www.w3.org/2000/svg">
<path d="M4.05423 18.1046C3.67856 18.2194 3.63574 19.0603 3.95301 19.3717C4.19242 19.6053 7.02841 20.5649 7.77584 20.9834C9.54712 21.9741 11.4079 23.5936 12.1476 25.542C12.5408 26.5775 12.4551 27.866 12.7276 28.6485C12.8853 29.1059 13.6716 29.2733 14.0064 28.9249C14.6858 28.2183 13.8605 25.6198 13.5062 24.7653C12.5661 22.4958 10.75 21.0476 8.81136 19.6578H13.1792C13.2473 19.6578 14.3257 19.2958 14.4892 19.2199C15.5227 18.745 16.0989 17.871 16.6731 16.9445C17.7417 17.7854 19.0302 17.9099 20.3168 17.4778C20.8502 17.2987 21.6073 16.6116 21.7494 16.5825C22.1446 16.5026 22.6701 17.18 23.0419 17.3669C24.2487 17.9742 25.7299 17.8184 26.8667 17.1333V22.6651C26.8667 24.8607 23.9197 28.8373 23.0302 31.0563C22.1407 33.2752 21.7397 35.7258 21.218 38.0732L7.06344 38.0947C6.94666 37.1039 6.99337 35.8679 6.84739 34.9141C6.13498 30.2427 1.70291 28.8704 0.560344 24.5104C0.0562122 22.5892 -0.301935 16.1289 0.363752 14.4141C0.684916 13.5849 1.66788 12.9971 2.52042 12.8822C4.23135 12.6506 11.7155 12.6214 13.2882 12.9523C15.2191 13.3572 15.9509 16.0336 14.5437 17.3338C14.3062 17.5518 13.0429 18.1065 12.7919 18.1065H4.05423V18.1046Z" fill="url(#paint0_linear_2169_3338)"/>
<path d="M18.2672 3.00971C19.5752 2.70996 20.8794 3.18879 21.0467 4.61359C21.2647 6.45883 21.3017 12.7303 21.0292 14.5035C20.6808 16.777 17.2142 16.6796 16.9611 14.521C16.5972 11.4164 17.2317 7.61891 16.9767 4.43646C17.0682 3.82333 17.6697 3.14791 18.2672 3.01166V3.00971Z" fill="url(#paint1_linear_2169_3338)"/>
<path d="M24.49 4.36254C25.6521 4.23018 26.7323 5.00876 26.8705 6.16495C27.0243 7.46324 27.0769 13.5576 26.8258 14.6671C26.3547 16.7537 22.9192 16.8179 22.5942 13.9313C22.4112 12.3002 22.4132 8.01603 22.6448 6.41215C22.8044 5.3124 23.2968 4.49684 24.49 4.36059V4.36254Z" fill="url(#paint2_linear_2169_3338)"/>
<path d="M9.58607 11.3114H5.31555V1.51097C5.31555 1.46036 5.7282 0.751851 5.81579 0.652581C7.05373 -0.744972 9.58607 0.273023 9.58607 2.09296V11.3114Z" fill="url(#paint3_linear_2169_3338)"/>
<path d="M15.2171 12.088C13.9422 11.2354 12.6245 11.2413 11.1393 11.3133C11.3087 8.96782 10.9174 6.33427 11.1315 4.02578C11.2775 2.45499 12.7782 1.47398 14.2303 2.30512C14.4639 2.43942 15.2171 3.26277 15.2171 3.45352V12.0899V12.088Z" fill="url(#paint4_linear_2169_3338)"/>
<defs>
<linearGradient id="paint0_linear_2169_3338" x1="25.367" y1="14.949" x2="1.19751" y2="39.0866" gradientUnits="userSpaceOnUse">
<stop stop-color="#C59D5F"/>
<stop offset="0.5" stop-color="#7A684D"/>
<stop offset="1" stop-color="#2F333B"/>
</linearGradient>
<linearGradient id="paint1_linear_2169_3338" x1="20.9777" y1="4.09491" x2="13.8102" y2="6.32916" gradientUnits="userSpaceOnUse">
<stop stop-color="#C59D5F"/>
<stop offset="0.5" stop-color="#7A684D"/>
<stop offset="1" stop-color="#2F333B"/>
</linearGradient>
<linearGradient id="paint2_linear_2169_3338" x1="26.7468" y1="5.39257" x2="19.5399" y2="8.00193" gradientUnits="userSpaceOnUse">
<stop stop-color="#C59D5F"/>
<stop offset="0.5" stop-color="#7A684D"/>
<stop offset="1" stop-color="#2F333B"/>
</linearGradient>
<linearGradient id="paint3_linear_2169_3338" x1="9.34769" y1="0.999311" x2="2.53865" y2="3.42538" gradientUnits="userSpaceOnUse">
<stop stop-color="#C59D5F"/>
<stop offset="0.5" stop-color="#7A684D"/>
<stop offset="1" stop-color="#2F333B"/>
</linearGradient>
<linearGradient id="paint4_linear_2169_3338" x1="14.9854" y1="2.89363" x2="8.50363" y2="5.41111" gradientUnits="userSpaceOnUse">
<stop stop-color="#C59D5F"/>
<stop offset="0.5" stop-color="#7A684D"/>
<stop offset="1" stop-color="#2F333B"/>
</linearGradient>
</defs>
</svg>
