<svg preserveAspectRatio="none" width="100%" height="100%" overflow="visible" style="display: block;" viewBox="0 0 166 28" fill="none" xmlns="http://www.w3.org/2000/svg">
<g id="Frame 148">
<path id="Line 2" d="M0 13.75C1.21667 13.7667 2.43333 13.7825 3.65 13.7975C14.6 13.9325 25.55 14 36.5 14C47.45 14 58.4 13.9325 69.35 13.7975C70.5667 13.7825 71.7833 13.7667 73 13.75C71.7833 13.7333 70.5667 13.7175 69.35 13.7025C58.4 13.5675 47.45 13.5 36.5 13.5C25.55 13.5 14.6 13.5675 3.65 13.7025C2.43333 13.7175 1.21667 13.7333 0 13.75Z" fill="url(#paint0_linear_7660_2255)"/>
<g id="Vector" filter="url(#filter0_d_7660_2255)">
<path d="M86.2489 16.5079C86.6067 16.2324 87.0089 16.0108 87.449 15.8651L93 14L87.449 12.1349C87.0089 11.9861 86.6067 11.7676 86.2489 11.4921C86.2837 11.4478 86.3154 11.4034 86.3502 11.3591L90.0709 6.92907L85.6409 10.6498C85.5966 10.6846 85.5522 10.7163 85.5079 10.7511C85.2324 10.3933 85.0108 9.99113 84.8651 9.55098L83 4L81.1349 9.55098C80.9861 9.99113 80.7676 10.3933 80.4921 10.7511C80.4477 10.7163 80.4034 10.6846 80.3591 10.6498L75.9291 6.92907L79.6498 11.3591C79.6846 11.4034 79.7163 11.4478 79.7511 11.4921C79.3933 11.7676 78.9911 11.9892 78.551 12.1349L73 14L78.551 15.8651C78.9911 16.0139 79.3933 16.2324 79.7511 16.5079C79.7163 16.5522 79.6846 16.5966 79.6498 16.6409L75.9291 21.0709L80.3591 17.3502C80.4034 17.3154 80.4477 17.2837 80.4921 17.2489C80.7676 17.6067 80.9892 18.0089 81.1349 18.449L83 24L84.8651 18.449C85.0139 18.0089 85.2324 17.6067 85.5079 17.2489C85.5522 17.2837 85.5966 17.3154 85.6409 17.3502L90.0709 21.0709L86.3502 16.6409C86.3154 16.5966 86.2837 16.5522 86.2489 16.5079Z" fill="var(--fill-0, #F0D4A8)"/>
</g>
<path id="Line 3" d="M93 13.75C94.2167 13.7667 95.4333 13.7825 96.65 13.7975C107.6 13.9325 118.55 14 129.5 14C140.45 14 151.4 13.9325 162.35 13.7975C163.567 13.7825 164.783 13.7667 166 13.75C164.783 13.7333 163.567 13.7175 162.35 13.7025C151.4 13.5675 140.45 13.5 129.5 13.5C118.55 13.5 107.6 13.5675 96.65 13.7025C95.4333 13.7175 94.2167 13.7333 93 13.75Z" fill="url(#paint1_linear_7660_2255)"/>
</g>
<defs>
<filter id="filter0_d_7660_2255" x="69" y="0" width="28" height="28" filterUnits="userSpaceOnUse" color-interpolation-filters="sRGB">
<feFlood flood-opacity="0" result="BackgroundImageFix"/>
<feColorMatrix in="SourceAlpha" type="matrix" values="0 0 0 0 0 0 0 0 0 0 0 0 0 0 0 0 0 0 127 0" result="hardAlpha"/>
<feOffset/>
<feGaussianBlur stdDeviation="2"/>
<feComposite in2="hardAlpha" operator="out"/>
<feColorMatrix type="matrix" values="0 0 0 0 0.811765 0 0 0 0 0.65098 0 0 0 0 0.309804 0 0 0 1 0"/>
<feBlend mode="normal" in2="BackgroundImageFix" result="effect1_dropShadow_7660_2255"/>
<feBlend mode="normal" in="SourceGraphic" in2="effect1_dropShadow_7660_2255" result="shape"/>
</filter>
<linearGradient id="paint0_linear_7660_2255" x1="0" y1="14.5" x2="73" y2="14.5" gradientUnits="userSpaceOnUse">
<stop stop-color="#F2E2B1"/>
<stop offset="1" stop-color="#CFA64F"/>
</linearGradient>
<linearGradient id="paint1_linear_7660_2255" x1="93" y1="14.5" x2="166" y2="14.5" gradientUnits="userSpaceOnUse">
<stop stop-color="#CFA64F"/>
<stop offset="1" stop-color="#F2E2B1"/>
</linearGradient>
</defs>
</svg>
