<svg preserveAspectRatio="none" width="100%" height="100%" overflow="visible" style="display: block;" viewBox="0 0 22.5009 22.5" fill="none" xmlns="http://www.w3.org/2000/svg">
<g id="Vector">
<path d="M15.1379 7.89742H14.7843C14.6921 6.04457 13.2181 4.55433 11.3852 4.4847C10.452 4.45034 9.55404 4.79215 8.85414 5.44956C8.16508 6.09701 7.76449 6.96331 7.71656 7.89742H7.36299C6.80144 7.89742 6.34388 8.35407 6.34388 8.91653V15.3712C6.34388 15.9328 6.80054 16.3903 7.36299 16.3903H15.1379C15.6995 16.3903 16.157 15.9337 16.157 15.3712V8.91653C16.157 8.35498 15.7004 7.89742 15.1379 7.89742ZM8.99068 5.59514C9.6508 4.97481 10.499 4.65018 11.3771 4.68454C13.1024 4.74965 14.4914 6.15217 14.5836 7.89742H7.9155C7.96343 7.01847 8.34232 6.20462 8.99068 5.59514ZM15.9572 15.3712C15.9572 15.8234 15.59 16.1905 15.1379 16.1905H7.36299C6.91086 16.1905 6.54372 15.8234 6.54372 15.3712V8.91653C6.54372 8.46439 6.91086 8.09726 7.36299 8.09726H15.1379C15.59 8.09726 15.9572 8.46439 15.9572 8.91653V15.3712Z" fill="var(--fill-0, #F2E1B0)"/>
<path d="M11.2505 22.25C5.18461 22.25 0.25 17.3154 0.25 11.2505C0.25 5.18551 5.18461 0.25 11.2505 0.25C17.3163 0.25 22.2509 5.18461 22.2509 11.2505C22.2509 17.3163 17.3163 22.25 11.2505 22.25ZM11.2505 0.521281C5.33381 0.521281 0.521281 5.33381 0.521281 11.2505C0.521281 17.1671 5.33381 21.9796 11.2505 21.9796C17.1671 21.9796 21.9796 17.1671 21.9796 11.2505C21.9796 5.33381 17.1662 0.521281 11.2505 0.521281Z" fill="var(--fill-0, #F2E1B0)"/>
<path d="M11.2505 13.4261C10.5433 13.4261 9.96729 12.851 9.96729 12.143C9.96729 11.4349 10.5424 10.8598 11.2505 10.8598C11.9585 10.8598 12.5336 11.4349 12.5336 12.143C12.5336 12.851 11.9585 13.4261 11.2505 13.4261ZM11.2505 11.132C10.6925 11.132 10.2386 11.5859 10.2386 12.1439C10.2386 12.7018 10.6925 13.1557 11.2505 13.1557C11.8084 13.1557 12.2623 12.7018 12.2623 12.1439C12.2623 11.5859 11.8084 11.132 11.2505 11.132Z" fill="var(--fill-0, #F2E1B0)"/>
<path d="M15.1379 7.89742H14.7843C14.6921 6.04457 13.2181 4.55433 11.3852 4.4847C10.452 4.45034 9.55404 4.79215 8.85414 5.44956C8.16508 6.09701 7.76449 6.96331 7.71656 7.89742H7.36299C6.80144 7.89742 6.34388 8.35407 6.34388 8.91653V15.3712C6.34388 15.9328 6.80054 16.3903 7.36299 16.3903H15.1379C15.6995 16.3903 16.157 15.9337 16.157 15.3712V8.91653C16.157 8.35498 15.7004 7.89742 15.1379 7.89742ZM8.99068 5.59514C9.6508 4.97481 10.499 4.65018 11.3771 4.68454C13.1024 4.74965 14.4914 6.15217 14.5836 7.89742H7.9155C7.96343 7.01847 8.34232 6.20462 8.99068 5.59514ZM15.9572 15.3712C15.9572 15.8234 15.59 16.1905 15.1379 16.1905H7.36299C6.91086 16.1905 6.54372 15.8234 6.54372 15.3712V8.91653C6.54372 8.46439 6.91086 8.09726 7.36299 8.09726H15.1379C15.59 8.09726 15.9572 8.46439 15.9572 8.91653V15.3712Z" stroke="var(--stroke-0, #F2E1B0)" stroke-width="0.5"/>
<path d="M11.2505 22.25C5.18461 22.25 0.25 17.3154 0.25 11.2505C0.25 5.18551 5.18461 0.25 11.2505 0.25C17.3163 0.25 22.2509 5.18461 22.2509 11.2505C22.2509 17.3163 17.3163 22.25 11.2505 22.25ZM11.2505 0.521281C5.33381 0.521281 0.521281 5.33381 0.521281 11.2505C0.521281 17.1671 5.33381 21.9796 11.2505 21.9796C17.1671 21.9796 21.9796 17.1671 21.9796 11.2505C21.9796 5.33381 17.1662 0.521281 11.2505 0.521281Z" stroke="var(--stroke-0, #F2E1B0)" stroke-width="0.5"/>
<path d="M11.2505 13.4261C10.5433 13.4261 9.96729 12.851 9.96729 12.143C9.96729 11.4349 10.5424 10.8598 11.2505 10.8598C11.9585 10.8598 12.5336 11.4349 12.5336 12.143C12.5336 12.851 11.9585 13.4261 11.2505 13.4261ZM11.2505 11.132C10.6925 11.132 10.2386 11.5859 10.2386 12.1439C10.2386 12.7018 10.6925 13.1557 11.2505 13.1557C11.8084 13.1557 12.2623 12.7018 12.2623 12.1439C12.2623 11.5859 11.8084 11.132 11.2505 11.132Z" stroke="var(--stroke-0, #F2E1B0)" stroke-width="0.5"/>
</g>
</svg>
